<?xml version="1.0" encoding="iso-8859-1"?>
<!-- Generator: Adobe Illustrator 19.0.0, SVG Export Plug-In . SVG Version: 6.00 Build 0)  -->
<svg version="1.1" id="Capa_1" xmlns="http://www.w3.org/2000/svg" xmlns:xlink="http://www.w3.org/1999/xlink" x="0px" y="0px"
	 viewBox="0 0 464 464" style="enable-background:new 0 0 464 464;" xml:space="preserve">
<path style="fill:#CCDAEC;" d="M92,88V0h256l64,64v400H92V216V88z"/>
<path style="fill:#1D3F54;" d="M332,0v80h80V64L348,0H332z"/>
<path style="fill:#4D8EBE;" d="M196,264V152H92v112H60l88,88l88-88H196z"/>
<path style="fill:#5A6570;" d="M236,408H60c-4.418,0-8-3.582-8-8v-32h16v24h160v-24h16v32C244,404.418,240.418,408,236,408z"/>
<g>
	<path style="fill:#FFFFFF;" d="M156,176h16v16h-16V176z"/>
	<path style="fill:#FFFFFF;" d="M156,104h16v56h-16V104z"/>
	<path style="fill:#FFFFFF;" d="M124,88h16v56h-16V88z"/>
</g>
<g>
</g>
<g>
</g>
<g>
</g>
<g>
</g>
<g>
</g>
<g>
</g>
<g>
</g>
<g>
</g>
<g>
</g>
<g>
</g>
<g>
</g>
<g>
</g>
<g>
</g>
<g>
</g>
<g>
</g>
</svg>
