<svg xmlns="http://www.w3.org/2000/svg" xmlns:xlink="http://www.w3.org/1999/xlink" viewBox="0 0 79.38 50.06"><defs><style>.cls-1{fill:#f06900;}.cls-2{fill:#ff0606;}.cls-3{fill:url(#Безымянный_градиент_9);}.cls-4{fill:#fc0;}</style><linearGradient id="Безымянный_градиент_9" x1="88.91" y1="35.14" x2="48.61" y2="-5.16" gradientUnits="userSpaceOnUse"><stop offset="0" stop-color="#e00000"/><stop offset="0.51" stop-color="#f06900"/><stop offset="1" stop-color="#ffce00"/></linearGradient></defs><title>Ресурс 24</title><g id="Слой_2" data-name="Слой 2"><g id="logo"><path d="M19,0a4.81,4.81,0,0,1,3.66,1.54,5.35,5.35,0,0,1,1.46,3.84,5.35,5.35,0,0,1-1.46,3.84A4.81,4.81,0,0,1,19,10.76a4.54,4.54,0,0,1-3.3-1.44v6.21H13.89V.3h1.83V1.44A4.54,4.54,0,0,1,19,0Zm-.08,1.79a3.06,3.06,0,0,0-2.36,1,3.68,3.68,0,0,0-.92,2.58A3.68,3.68,0,0,0,16.58,8a3,3,0,0,0,2.36,1,3,3,0,0,0,2.37-1,3.72,3.72,0,0,0,.92-2.58,3.72,3.72,0,0,0-.92-2.58,3.08,3.08,0,0,0-2.37-1"/><path d="M35,2H31.19v8.45H29.36V2H25.61V.3H35Z"/><path class="cls-1" d="M11.76,25.86,11.55,30H9.93V27.56h-8L2,30H.4L0,25.86H1a.66.66,0,0,0,.46-.19,1.4,1.4,0,0,0,.31-.6c.07-.27.13-.54.18-.82A10.54,10.54,0,0,0,2,23.16c0-.46,0-.85,0-1.16s0-.74,0-1.28V17.41h8v8.45Zm-3.52,0V19.12H3.84V21a14.77,14.77,0,0,1-.61,4.87Z"/><path d="M13.89,17.41h1.83v7.43l5.54-7.43H23V27.56H21.2V20.13l-5.54,7.43H13.89Z"/><path d="M31.23,21.39a3.6,3.6,0,0,1,2.5.68,2.62,2.62,0,0,1,1.1,2.22,3.09,3.09,0,0,1-1.29,2.62,4.89,4.89,0,0,1-3,1,5.16,5.16,0,0,1-3-.86,5.06,5.06,0,0,1-1.82-2.19l1.46-1a3.8,3.8,0,0,0,1.29,1.74,3.24,3.24,0,0,0,2,.65,2.89,2.89,0,0,0,1.8-.52A1.71,1.71,0,0,0,33,24.25a1.61,1.61,0,0,0-1.16-1.57,2.91,2.91,0,0,0-2.54.3l-.77-1.08L32,19.12H26.62V17.41h7.82v1.52Z"/><path d="M43,17.11a4.31,4.31,0,0,1,3.1,1,3.93,3.93,0,0,1,1.07,3v6.47H45.31V26.39a4.35,4.35,0,0,1-1.74,1.07,6.3,6.3,0,0,1-2.12.41,3.7,3.7,0,0,1-2.28-.68,2.34,2.34,0,0,1-.91-2,2.31,2.31,0,0,1,1-2,7.48,7.48,0,0,1,2.83-1,14.46,14.46,0,0,0,2.68-.69,1.05,1.05,0,0,0,.55-1,1.38,1.38,0,0,0-.63-1.18A3,3,0,0,0,43,18.77a4.38,4.38,0,0,0-2.28.65,4.07,4.07,0,0,0-1.62,1.81l-1.17-1.44a6.15,6.15,0,0,1,2.21-2A6,6,0,0,1,43,17.11ZM41.7,26.24a4.3,4.3,0,0,0,2.52-.79,2.26,2.26,0,0,0,1.15-1.87v-1a8.7,8.7,0,0,1-2.58.87l-1.14.27a5.6,5.6,0,0,0-.81.28,1.28,1.28,0,0,0-.59.43,1.13,1.13,0,0,0-.16.61C40.09,25.85,40.63,26.24,41.7,26.24Z"/><path d="M50.49,17.41h1.82v7.43l5.55-7.43h1.76V27.56H57.8V20.13l-5.55,7.43H50.49Zm7.42-3a4.24,4.24,0,0,1-4.9,0,2.56,2.56,0,0,1-1-1.88l1.52-.37a2.1,2.1,0,0,0,.55,1.21,1.86,1.86,0,0,0,1.34.42,1.69,1.69,0,0,0,1.89-1.63l1.52.37A2.52,2.52,0,0,1,57.91,14.38Z"/><path d="M72.21,17.41V27.56H70.39V23.34H64.9v4.22H63.07V17.41H64.9v4.22h5.49V17.41Z"/><path class="cls-2" d="M6,45a5.28,5.28,0,0,1-3.87-1.54A5.22,5.22,0,0,1,.61,39.6,5.14,5.14,0,0,1,2.2,35.76a5.39,5.39,0,0,1,3.89-1.54A4.91,4.91,0,0,1,10.23,36L9.1,37.59a3.41,3.41,0,0,0-3-1.59,3.46,3.46,0,0,0-2.57,1,3.84,3.84,0,0,0,0,5.16,3.42,3.42,0,0,0,2.52,1,3.57,3.57,0,0,0,2.36-.77,3.35,3.35,0,0,0,1.17-2l1.59.91A5,5,0,0,1,9.31,44,5.33,5.33,0,0,1,6,45Z"/><path d="M23.13,36.23H19.37v8.44H17.54V36.23H13.79V34.52h9.34Z"/><path d="M31.21,44.55a8.27,8.27,0,0,1,.53,2.52A3,3,0,0,1,31,49.22a2.74,2.74,0,0,1-2.13.84,3.86,3.86,0,0,1-2-.63V47.27a3.15,3.15,0,0,0,2,1,1.05,1.05,0,0,0,1-.48A1.79,1.79,0,0,0,30,46.62a5.09,5.09,0,0,0-.41-1.48L25,34.52h2l3.25,8,3.31-8h2Z"/><path d="M48.39,43l-.21,4.18H46.56V44.67h-8l.12,2.48H37L36.63,43h.95a.62.62,0,0,0,.46-.19,1.3,1.3,0,0,0,.3-.6,7.91,7.91,0,0,0,.19-.81c0-.28.08-.64.1-1.1s0-.85,0-1.16,0-.74,0-1.28V34.52h8V43Zm-3.52,0V36.23h-4.4V38.1A14.73,14.73,0,0,1,39.86,43Z"/><path d="M50.49,34.52h1.82V42l5.55-7.43h1.76V44.67H57.8V37.24l-5.55,7.43H50.49Z"/><path d="M72.18,44.67H70.35v-4.1l-4.75,4.1H63.11l4.79-3.91A4.56,4.56,0,0,1,65,39.91a2.73,2.73,0,0,1-1-2.24,2.78,2.78,0,0,1,1.06-2.32,4.7,4.7,0,0,1,3-.83h4.14Zm-5.73-8.14a1.51,1.51,0,0,0,0,2.28,2.39,2.39,0,0,0,1.51.4h2.39V36.13H68A2.39,2.39,0,0,0,66.45,36.53Z"/><path d="M21.31,8a3.72,3.72,0,0,0,.92-2.58,3.72,3.72,0,0,0-.92-2.58l1.37-1.26a5.35,5.35,0,0,1,1.46,3.84,5.35,5.35,0,0,1-1.46,3.84"/><polygon class="cls-3" points="77.67 4.53 38.92 4.53 38.92 6.23 77.67 6.23 77.67 44.67 79.38 44.67 79.38 6.23 79.38 4.53 77.67 4.53"/><path class="cls-4" d="M10.51,4.53V4A3.89,3.89,0,0,0,9.44,1a4.27,4.27,0,0,0-3.1-1A6.15,6.15,0,0,0,1.25,2.68L2.43,4.12A4,4,0,0,1,4,2.31a4.4,4.4,0,0,1,2.28-.64,3,3,0,0,1,1.77.44,1.38,1.38,0,0,1,.63,1.18,1.05,1.05,0,0,1-.55,1A14.46,14.46,0,0,1,5.49,5,7.66,7.66,0,0,0,2.66,6a2.33,2.33,0,0,0-1,2,2.33,2.33,0,0,0,.91,2,3.7,3.7,0,0,0,2.28.68,6.27,6.27,0,0,0,2.12-.4A4.29,4.29,0,0,0,8.68,9.28v1.18h1.83V4.53Zm-1.77,2A2.26,2.26,0,0,1,7.59,8.35a4.38,4.38,0,0,1-2.52.79c-1.07,0-1.61-.4-1.61-1.2a1.15,1.15,0,0,1,.16-.61,1.43,1.43,0,0,1,.59-.43A7.15,7.15,0,0,1,5,6.62c.26-.07.64-.16,1.14-.26a9,9,0,0,0,2.58-.88Z"/></g></g></svg>