<svg xmlns="http://www.w3.org/2000/svg" xmlns:xlink="http://www.w3.org/1999/xlink" viewBox="0 0 854.83 855.76"><defs><style>.cls-1{opacity:0.04;}.cls-2{fill:url(#Безымянный_градиент_100);}.cls-3{fill:url(#Безымянный_градиент_100-2);}.cls-4{fill:url(#Безымянный_градиент_100-3);}.cls-5{fill:url(#Безымянный_градиент_100-4);}.cls-6{fill:url(#Безымянный_градиент_100-5);}</style><linearGradient id="Безымянный_градиент_100" y1="427.88" x2="854.83" y2="427.88" gradientUnits="userSpaceOnUse"><stop offset="0" stop-color="#db00ff"/><stop offset="1" stop-color="#7f00ff"/></linearGradient><linearGradient id="Безымянный_градиент_100-2" x1="537.4" y1="173.67" x2="583.92" y2="173.67" xlink:href="#Безымянный_градиент_100"/><linearGradient id="Безымянный_градиент_100-3" x1="347.55" y1="692.01" x2="598.86" y2="692.01" xlink:href="#Безымянный_градиент_100"/><linearGradient id="Безымянный_градиент_100-4" x1="199.5" y1="599" x2="270.89" y2="599" xlink:href="#Безымянный_градиент_100"/><linearGradient id="Безымянный_градиент_100-5" x1="441.96" y1="499.2" x2="541.84" y2="499.2" xlink:href="#Безымянный_градиент_100"/></defs><title>Ресурс 13</title><g id="Слой_2" data-name="Слой 2"><g id="main"><g id="inside"><g id="Page-1" class="cls-1"><path id="Shape" class="cls-2" d="M738.17,627.56a191.59,191.59,0,0,0-.34-72.74l65.32-157.64a1.71,1.71,0,0,0,0-.32A267.89,267.89,0,0,1,849,317.25a21.28,21.28,0,0,0,5.26-19.47L827.49,182.11a13.89,13.89,0,0,0-1.43-3.45c-.11-.22-.16-.47-.27-.67s-.61-.69-.9-1.06a14.52,14.52,0,0,0-2-2.35,13.73,13.73,0,0,0-1.56-.94,9.94,9.94,0,0,0-5.54-2.16c-.33,0-.62-.21-.94-.24A14.24,14.24,0,0,0,807,173c-.22.11-.47.15-.69.28h-.14L705.44,236.14a21.28,21.28,0,0,0-10.07,17.54,267.9,267.9,0,0,1-24,88.9v.16l-32.65,78.91a191.37,191.37,0,0,0-51-18.4A770.32,770.32,0,0,0,595.19,263a155.68,155.68,0,0,0,35.4-114.27c-8.91-83.13-84-143.16-87.24-145.68a14.26,14.26,0,0,0-22.61,14.87c7.35,27.59,1,56.7-53.27,116.56a83.45,83.45,0,0,0-19.55,90.95,110.46,110.46,0,0,0,20.31,32.8c-3.46,22-6.17,42.91-8,63.23a714.62,714.62,0,0,0-2.49,101.15,194.18,194.18,0,0,0-35.51,24.75L353,151.56c0-.3-.29-.51-.37-.78a14,14,0,0,0-1-2.76L281,17.53A32.93,32.93,0,0,0,219.13,32l-5.36,148.26a14.92,14.92,0,0,0,.35,3.19v.64l70.57,301.18a160.43,160.43,0,0,0-33,4.92L174.09,302.73a28.83,28.83,0,0,0-37.23-15.25L18.21,336.6A28.62,28.62,0,0,0,2.76,373.87l105.29,254a114,114,0,0,0,5.88,227.9H741.48a114.11,114.11,0,0,0-3.31-228.2ZM723.64,258.39l59.79-37.31-21.17,51.11a14.27,14.27,0,0,0,26.36,10.93L809.79,232l15.84,68.65a282.17,282.17,0,0,0-41.36,68.27,58.66,58.66,0,0,1-79.73-33A281.67,281.67,0,0,0,723.64,258.39Zm-32.8,112a86.86,86.86,0,0,0,35.55,25.89,90.71,90.71,0,0,0,34.9,7.36,75.79,75.79,0,0,0,8.65-.53L724.42,512.9a193.59,193.59,0,0,0-61.24-75.72ZM495.44,268.5l71.65,4.38c.45,13.32.29,27.1-.15,41.09a300.58,300.58,0,0,1-71.46-3.45c-1.8-.26-3.55-.46-5.33-.7,1.42-13.44,3.16-27,5.26-41.32Zm-6.81-114.86c37.87-41.77,57.5-73.91,62.06-104.12a190.81,190.81,0,0,1,51.48,102.24,127.83,127.83,0,0,1-28.87,92.88q-42.27-2.56-83.6-5.14a59.5,59.5,0,0,1-1.09-85.86Zm-1.08,184.6,4.14.54a406.55,406.55,0,0,0,55.52,4.73c5.91,0,12.12-.47,18.36-1-1.3,18.36-3.43,37.53-6.12,57.34-3.52-.19-7-.53-10.51-.53a191.1,191.1,0,0,0-63.21,10.88,689.15,689.15,0,0,1,1.79-72ZM377.23,505,336.42,331.21a14.26,14.26,0,0,0-27.76,6.51l36.66,156.44a161.45,161.45,0,0,0-31.09-7.74l-62.6-267.14a67.61,67.61,0,0,0,27.93,6.07c.9,0,1.85-.12,2.77-.17l10.08,43.06a14.26,14.26,0,1,0,27.77-6.5l-10.1-43.09a67.51,67.51,0,0,0,24.92-19L398.64,471.8A191,191,0,0,0,377.23,505Zm-87.14-309.5a47.35,47.35,0,0,1-47.63-19.07l1.81-50.23a84.49,84.49,0,0,0,15,1.43A63.06,63.06,0,0,0,273.81,126a72.5,72.5,0,0,0,26.44-13.15l24,44.33a47.31,47.31,0,0,1-34.18,38.34ZM251,28.92a4.45,4.45,0,0,1,4.91,2.19l30.58,56.55a48.77,48.77,0,0,1-19.26,10.7,48.47,48.47,0,0,1-22-1l2.33-64.27A4.4,4.4,0,0,1,251,28.92ZM147.8,313.78l10.9,26.33L105.93,362a14.26,14.26,0,0,0,10.95,26.33l52.77-21.86,10.91,26.35-26.4,10.94a14.27,14.27,0,0,0,10.93,26.36l26.4-10.94L202.4,445.5l-52.82,21.89a14.27,14.27,0,0,0,10.93,26.36l52.77-21.85,11.54,27.85a165.58,165.58,0,0,0-92.35,112.41L29.09,362.9ZM741.48,827.24H113.93a85.58,85.58,0,1,1,0-171.15,84,84,0,0,1,24.4,3.53,14.27,14.27,0,0,0,18.39-13.39A135.49,135.49,0,0,1,373.51,540.56a14.26,14.26,0,0,0,21.86-6.42A164.05,164.05,0,0,1,705.75,640a14.27,14.27,0,0,0,16.69,18.14,88.42,88.42,0,0,1,19-2.08,85.58,85.58,0,1,1,0,171.15Z"/><path class="cls-3" d="M551.58,223.93A14.28,14.28,0,0,0,563,218.29a107,107,0,0,0,19-84,14.26,14.26,0,1,0-27.56,7.34,79.25,79.25,0,0,1-14.15,59.42,14.26,14.26,0,0,0,11.41,22.82Z"/><path class="cls-4" d="M532.82,656.09a70,70,0,0,0-30.59,7.13,85.57,85.57,0,0,0-147.83,84,14.25,14.25,0,0,0,13.12,8.67,14,14,0,0,0,5.59-1.14A14.26,14.26,0,0,0,380.64,736a58,58,0,0,1-4.71-22.9,57,57,0,0,1,57.05-57,56.45,56.45,0,0,1,51.56,32.8,16.07,16.07,0,0,0,1,1.34c.23.49.48,1,.76,1.43.25.31.62.45.91.75a13.53,13.53,0,0,0,2.21,1.86,14.48,14.48,0,0,0,2.28,1.42,13.66,13.66,0,0,0,2.57.8,12.77,12.77,0,0,0,2.68.41,17.45,17.45,0,0,0,5.45-.91,11.57,11.57,0,0,0,1.13-.27,14.09,14.09,0,0,0,1.32-1c.51-.23,1-.49,1.5-.77a42,42,0,0,1,26.47-9.36,42.77,42.77,0,0,1,38.79,24.89,14.27,14.27,0,0,0,26-11.84A71.3,71.3,0,0,0,532.82,656.09Z"/><path class="cls-5" d="M252.05,557c-2.16.7-52.55,18.13-52.55,70.59a14.27,14.27,0,0,0,28.53,0A49,49,0,0,1,261.15,584a14.29,14.29,0,0,0-9.1-27.1Z"/><path class="cls-6" d="M452.76,541.56a14,14,0,0,0,3.47.42,14.25,14.25,0,0,0,13.82-10.79,60.84,60.84,0,0,1,57.56-46.26,14.26,14.26,0,1,0-.07-28.52,88.82,88.82,0,0,0-85.14,67.85A14.26,14.26,0,0,0,452.76,541.56Z"/></g></g></g></g></svg>