<svg xmlns="http://www.w3.org/2000/svg" xmlns:xlink="http://www.w3.org/1999/xlink" viewBox="0 0 969.06 954.74"><defs><style>.cls-1{opacity:0.72;}.cls-2,.cls-3{fill-rule:evenodd;}.cls-2{fill:url(#Безымянный_градиент_100);}.cls-3{fill:url(#Безымянный_градиент_100-2);}</style><linearGradient id="Безымянный_градиент_100" y1="477.37" x2="969.06" y2="477.37" gradientUnits="userSpaceOnUse"><stop offset="0" stop-color="#db00ff"/><stop offset="1" stop-color="#7f00ff"/></linearGradient><linearGradient id="Безымянный_градиент_100-2" x1="188.2" y1="461.75" x2="226.05" y2="461.75" xlink:href="#Безымянный_градиент_100"/></defs><title>svg2</title><g id="Слой_2" data-name="Слой 2"><g id="main"><g id="inside"><g class="cls-1"><path class="cls-2" d="M18.93,696.4H249l-132.77,230a18.93,18.93,0,0,0,16.39,28.39h134A18.92,18.92,0,0,0,283,945.27L426.68,696.4h115.7L686.06,945.27a18.91,18.91,0,0,0,16.39,9.47h134a18.93,18.93,0,0,0,16.4-28.39l-132.77-230H950.13a18.92,18.92,0,0,0,18.93-18.93V128.78a18.93,18.93,0,0,0-18.93-18.93H561.48V18.93A18.93,18.93,0,0,0,542.55,0h-116a18.92,18.92,0,0,0-18.93,18.93v90.92H18.93A18.93,18.93,0,0,0,0,128.78V677.47A18.92,18.92,0,0,0,18.93,696.4ZM255.68,916.88H165.4L292.69,696.4H383Zm548,0H713.38L586.08,696.4h90.28ZM931.21,658.55H778.67L601.75,484.28l39.84-39.84h0l72.84-72.85,72.85,72.85h0l143.9,143.88ZM611.43,344.81a103,103,0,1,1,188,58.25l-39.3-39.3-32.33-32.33a18.93,18.93,0,0,0-1.42-1.27c-.28-.24-.59-.45-.89-.67s-.39-.3-.6-.44c-.41-.27-.83-.51-1.25-.75l-.33-.2c-.44-.23-.9-.43-1.35-.63l-.33-.15c-.43-.18-.86-.33-1.3-.47l-.45-.15c-.39-.12-.78-.21-1.17-.3-.21,0-.42-.11-.64-.15s-.68-.11-1-.16l-.81-.12c-.3,0-.61,0-.91,0s-.61-.05-.92-.05-.61,0-.91.05-.61,0-.91,0l-.81.12c-.34.05-.69.09-1,.16l-.63.15c-.39.09-.78.18-1.17.3-.16,0-.32.11-.48.16-.43.14-.85.29-1.27.46l-.38.17c-.43.19-.87.39-1.29.61-.14.08-.28.16-.41.25-.4.22-.8.45-1.18.71s-.45.33-.68.49-.55.39-.81.61a17.15,17.15,0,0,0-1.42,1.27l-48.39,48.4-23.23,23.23A102.32,102.32,0,0,1,611.43,344.81Zm-166-307h78.2v72h-78.2ZM37.85,649.23,165.38,527.68a18.93,18.93,0,0,0-26.12-27.4L37.85,596.94V147.7H931.21V534.8L826.55,430.14a139.89,139.89,0,0,0,28.78-85.33c0-77.67-63.19-140.87-140.88-140.87s-140.88,63.2-140.88,140.87a139.84,139.84,0,0,0,28.79,85.33l-27.57,27.57L395.63,281.25a18.92,18.92,0,0,0-26.34-.21L248.87,395.82A18.92,18.92,0,1,0,275,423.22L382.13,321.09l342.6,337.46H37.85Z"/><path class="cls-3" d="M207.12,442.82a18.93,18.93,0,1,0,18.93,18.93A19,19,0,0,0,207.12,442.82Z"/></g></g></g></g></svg>