<?xml version="1.0" encoding="utf-8"?>
<!-- Generator: Adobe Illustrator 23.0.0, SVG Export Plug-In . SVG Version: 6.00 Build 0)  -->
<svg version="1.1" id="Capa_1" xmlns="http://www.w3.org/2000/svg" xmlns:xlink="http://www.w3.org/1999/xlink" x="0px" y="0px"
	 viewBox="0 0 512 512" style="enable-background:new 0 0 512 512;" xml:space="preserve">
<style type="text/css">
	.st0{fill:#E8E8E8;}
</style>
<g>
	<g>
		<path class="st0" d="M307.8,237.7h-9.1v-12.2c0-23.5-19.1-42.6-42.6-42.6s-42.6,19.1-42.6,42.6v12.2h-9.1c-1.7,0-3,1.4-3,3v76.2
			c0,6.7,5.5,12.2,12.2,12.2h85.3c6.7,0,12.2-5.5,12.2-12.2v-76.2C310.8,239.1,309.5,237.7,307.8,237.7z M265.1,301.4
			c0.1,0.9-0.2,1.7-0.8,2.4c-0.6,0.6-1.4,1-2.3,1h-12.2c-0.9,0-1.7-0.4-2.3-1c-0.6-0.6-0.9-1.5-0.8-2.4l1.9-17.3
			c-3.1-2.3-5-5.9-5-9.8c0-6.7,5.5-12.2,12.2-12.2s12.2,5.5,12.2,12.2c0,3.9-1.9,7.5-5,9.8L265.1,301.4z M280.4,237.7h-48.7v-12.2
			c0-13.4,10.9-24.4,24.4-24.4c13.4,0,24.4,10.9,24.4,24.4V237.7z"/>
	</g>
</g>
</svg>
