<?xml version="1.0" encoding="utf-8"?>
<!-- Generator: Adobe Illustrator 23.0.0, SVG Export Plug-In . SVG Version: 6.00 Build 0)  -->
<svg version="1.1" id="reg" xmlns="http://www.w3.org/2000/svg" xmlns:xlink="http://www.w3.org/1999/xlink" x="0px" y="0px"
	 viewBox="0 0 512 512" style="enable-background:new 0 0 512 512;" xml:space="preserve">
<style type="text/css">
	.st0{fill:#8E24AA;}
	.st1{fill:#FFFFFF;stroke:#FFFFFF;stroke-width:21;stroke-miterlimit:10;}
	.st2{fill:#FFFFFF;}
</style>
<path class="st0" d="M483.5,294.7c14.6-123.2-7-201-45.9-236.2l0,0c-62.9-60.1-275.1-69-350.3,2.7c-33.8,35.1-45.7,86.5-47,150.2
	c-1.3,63.7-2.9,183.1,107.9,215.5h0.1l-0.1,49.5c0,0-0.7,20,12,24.1c14.6,4.8,21.2-4.6,66.5-58.9c75.8,6.6,134.1-8.5,140.7-10.7
	C382.9,425.6,469.5,414.1,483.5,294.7L483.5,294.7z"/>
<path class="st1" d="M331.1,272.5c-10.5-6.1-21.3-2.3-25.7,3.7l-9.3,12c-4.7,6.1-13.5,5.3-13.5,5.3
	c-103.9,24.7-102.2-62.5-81.5-84.3c0,0-0.8-9.1,5.1-14l11.6-9.6c5.8-4.6,9.5-15.7,3.6-26.6c-15.8-28.5-26.4-38.4-31.8-45.9
	c-5.7-7.1-14.2-8.7-23.1-3.9h-0.2c-18.5,10.8-38.7,31-32.2,51.8c1.2,2.1,28.9,89.9,95.9,144.7c30.4,25,78.4,50.6,98.8,56.5l0.2,0.3
	c20.1,6.7,39.6-14.3,50.1-33.3V329c4.6-9.2,3.1-17.9-3.7-23.6C363.4,293.7,345.3,280.8,331.1,272.5L331.1,272.5z"/>
<path class="st2" d="M273.3,182.4c0.2,0,23.4,3,27.6,28c3.5,21.2,35,15.5,31.6-5.2c-6.5-38.8-39.1-52.6-55.5-54.5
	C255.9,148.2,252.3,180,273.3,182.4L273.3,182.4z"/>
<path class="st2" d="M256.7,113.4c0.4,0,50.7-0.9,83.5,34.2c32.4,34.6,25.2,85,25.2,85.5c-3.3,20.8,28.3,26.3,31.6,5
	c0.4-2.7,9.8-66-33.4-112.3c-42.9-45.9-105.3-44.5-107.9-44.3C233.8,82.1,236.5,115.1,256.7,113.4L256.7,113.4z"/>
</svg>
